name analog
datacolumns 19
datarows 53
range 0.3205 0.34650000000000003
endheader
time	ground_force_vx	ground_force_vy	ground_force_vz	ground_force_px	ground_force_py	ground_force_pz	l_ground_force_vx	l_ground_force_vy	l_ground_force_vz	l_ground_force_px	l_ground_force_py	l_ground_force_pz	ground_torque_x	ground_torque_y	ground_torque_z	l_ground_torque_x	l_ground_torque_y	l_ground_torque_z
0.3205	-0.0	-0.0	-0.0	-0.0	-0.0	-0.0	-5.567749500274658	10.951889038085938	-894.0692749023438	-0.0	-0.0	-0.0	-0.0	-0.0	-0.0	264296.9375	-32013.130859375	-3499.392822265625
0.321	-0.0	-0.0	-0.0	-0.0	-0.0	-0.0	-4.974433898925781	12.141348838806152	-896.138427734375	-0.0	-0.0	-0.0	-0.0	-0.0	-0.0	265258.6875	-32359.66796875	-3653.56494140625
0.3215	-0.0	-0.0	-0.0	-0.0	-0.0	-0.0	-4.483339309692383	13.567583084106444	-899.4952392578125	-0.0	-0.0	-0.0	-0.0	-0.0	-0.0	266471.875	-32577.98046875	-3538.892822265625
0.322	-0.0	-0.0	-0.0	-0.0	-0.0	-0.0	-3.193588256835937	14.742823600769045	-903.14794921875	-0.0	-0.0	-0.0	-0.0	-0.0	-0.0	268115.625	-33185.953125	-3293.5517578125
0.3225	-0.0	-0.0	-0.0	-0.0	-0.0	-0.0	-2.094719886779785	16.1899356842041	-905.913330078125	-0.0	-0.0	-0.0	-0.0	-0.0	-0.0	268845.625	-33267.203125	-3006.84326171875
0.323	-0.0	-0.0	-0.0	-0.0	-0.0	-0.0	-1.0029630661010742	16.543180465698242	-904.787353515625	-0.0	-0.0	-0.0	-0.0	-0.0	-0.0	268723.0	-33436.16015625	-2942.327880859375
0.3235	-0.0	-0.0	-0.0	-0.0	-0.0	-0.0	-0.963754177093506	16.977245330810547	-900.7046508789062	-0.0	-0.0	-0.0	-0.0	-0.0	-0.0	267980.96875	-33402.72265625	-2891.888671875
0.324	-0.0	-0.0	-0.0	-0.0	-0.0	-0.0	0.0346881076693534	17.62215805053711	-898.5797119140625	-0.0	-0.0	-0.0	-0.0	-0.0	-0.0	266979.53125	-33638.7578125	-2724.591064453125
0.3245	-0.0	-0.0	-0.0	-0.0	-0.0	-0.0	1.126270413398743	17.487693786621094	-895.361572265625	-0.0	-0.0	-0.0	-0.0	-0.0	-0.0	266258.625	-34188.74609375	-2293.1240234375
0.325	-0.0	-0.0	-0.0	-0.0	-0.0	-0.0	1.766189455986023	16.834674835205078	-894.240478515625	-0.0	-0.0	-0.0	-0.0	-0.0	-0.0	265298.0625	-34333.4765625	-1874.979736328125
0.3255	-0.0	-0.0	-0.0	-0.0	-0.0	-0.0	2.422028064727783	14.891481399536133	-889.9874267578125	-0.0	-0.0	-0.0	-0.0	-0.0	-0.0	264326.375	-34345.859375	-1608.0693359375
0.326	-0.0	-0.0	-0.0	-0.0	-0.0	-0.0	2.785154342651367	12.938220024108888	-887.576171875	-0.0	-0.0	-0.0	-0.0	-0.0	-0.0	262584.3125	-34400.88671875	-1267.5029296875
0.3265	-0.0	-0.0	-0.0	-0.0	-0.0	-0.0	2.2263193130493164	12.126673698425291	-882.9707641601562	-0.0	-0.0	-0.0	-0.0	-0.0	-0.0	261266.8125	-34230.05078125	-1469.6033935546875
0.327	-0.0	-0.0	-0.0	-0.0	-0.0	-0.0	1.295276165008545	11.631916999816896	-878.0114135742188	-0.0	-0.0	-0.0	-0.0	-0.0	-0.0	259626.703125	-34323.5546875	-1597.982421875
0.3275	-0.0	-0.0	-0.0	-0.0	-0.0	-0.0	0.4435539245605469	10.678014755249023	-872.8086547851562	-0.0	-0.0	-0.0	-0.0	-0.0	-0.0	258335.625	-33947.484375	-1717.486572265625
0.328	-0.0	-0.0	-0.0	-0.0	-0.0	-0.0	-0.5231944918632507	9.282807350158691	-870.9600219726562	-0.0	-0.0	-0.0	-0.0	-0.0	-0.0	257322.453125	-33844.40625	-1896.5126953125
0.3285	-0.0	-0.0	-0.0	-0.0	-0.0	-0.0	-0.8871078491210938	7.95810604095459	-867.5693969726562	-0.0	-0.0	-0.0	-0.0	-0.0	-0.0	256257.484375	-33941.0234375	-1974.162353515625
0.329	-0.0	-0.0	-0.0	-0.0	-0.0	-0.0	-0.6474058032035828	7.285628318786621	-866.3120727539062	-0.0	-0.0	-0.0	-0.0	-0.0	-0.0	255646.265625	-34469.0703125	-1816.954345703125
0.3295	-0.0	-0.0	-0.0	-0.0	-0.0	-0.0	0.0623387917876243	7.490639686584473	-867.8871459960938	-0.0	-0.0	-0.0	-0.0	-0.0	-0.0	256276.421875	-34860.25390625	-1704.1387939453125
0.33	-0.0	-0.0	-0.0	-0.0	-0.0	-0.0	1.3930416107177734	8.364344596862793	-872.9444580078125	-0.0	-0.0	-0.0	-0.0	-0.0	-0.0	257671.625	-35628.0390625	-1361.4305419921875
0.3305	-0.0	-0.0	-0.0	-0.0	-0.0	-0.0	3.449777841567993	10.036189079284668	-877.7030029296875	-0.0	-0.0	-0.0	-0.0	-0.0	-0.0	259108.421875	-36495.4140625	-853.1242065429688
0.331	-0.0	-0.0	-0.0	-0.0	-0.0	-0.0	6.209754943847656	11.674471855163574	-879.9651489257812	-0.0	-0.0	-0.0	-0.0	-0.0	-0.0	259777.25	-37227.88671875	-188.12307739257807
0.3315	-0.0	-0.0	-0.0	-0.0	-0.0	-0.0	8.380716323852539	12.650595664978027	-879.4508056640625	-0.0	-0.0	-0.0	-0.0	-0.0	-0.0	260305.296875	-37655.48046875	85.97209930419922
0.332	-0.0	-0.0	-0.0	-0.0	-0.0	-0.0	9.09019660949707	12.453357696533203	-879.6156005859375	-0.0	-0.0	-0.0	-0.0	-0.0	-0.0	259613.46875	-37541.01171875	238.2190093994141
0.3325	-0.0	-0.0	-0.0	-0.0	-0.0	-0.0	9.037908554077148	11.92342758178711	-875.630615234375	-0.0	-0.0	-0.0	-0.0	-0.0	-0.0	258976.015625	-37421.73828125	204.8554534912109
0.333	-0.0	-0.0	-0.0	-0.0	-0.0	-0.0	8.897043228149414	11.570140838623049	-875.1612548828125	-0.0	-0.0	-0.0	-0.0	-0.0	-0.0	258583.09375	-37015.39453125	152.52110290527344
0.3335	-0.0	-0.0	-0.0	-0.0	-0.0	-0.0	8.74547004699707	11.20591163635254	-874.3931274414062	-0.0	-0.0	-0.0	-0.0	-0.0	-0.0	258343.6875	-36648.09375	22.716583251953125
0.334	-0.0	-0.0	-0.0	-0.0	-0.0	-0.0	8.593831062316895	11.040210723876951	-873.373779296875	-0.0	-0.0	-0.0	-0.0	-0.0	-0.0	257516.078125	-36334.41796875	173.31907653808594
0.3345	-0.0	-0.0	-0.0	-0.0	-0.0	-0.0	8.845288276672363	10.16828441619873	-867.4833984375	-0.0	-0.0	-0.0	-0.0	-0.0	-0.0	255662.34375	-35706.37109375	272.05780029296875
0.335	-0.0	-0.0	-0.0	-0.0	-0.0	-0.0	9.237385749816896	8.943317413330078	-858.158447265625	-0.0	-0.0	-0.0	-0.0	-0.0	-0.0	252695.3125	-35338.01953125	399.2506103515625
0.3355	-0.0	-0.0	-0.0	-0.0	-0.0	-0.0	10.049992561340332	7.167980670928955	-846.343505859375	-0.0	-0.0	-0.0	-0.0	-0.0	-0.0	249173.625	-34928.7109375	890.3042602539062
0.336	-0.0	-0.0	-0.0	-0.0	-0.0	-0.0	11.189422607421877	5.297420978546143	-836.1640014648438	-0.0	-0.0	-0.0	-0.0	-0.0	-0.0	246082.203125	-34470.41015625	1284.857177734375
0.3365	-0.0	-0.0	-0.0	-0.0	-0.0	-0.0	11.40613079071045	3.128655195236206	-830.9273071289062	-0.0	-0.0	-0.0	-0.0	-0.0	-0.0	243898.109375	-34102.97265625	1792.757080078125
0.337	-0.0	-0.0	-0.0	-0.0	-0.0	-0.0	12.255377769470217	0.9329195618629456	-829.7849731445312	-0.0	-0.0	-0.0	-0.0	-0.0	-0.0	243255.546875	-34238.875	2191.48193359375
0.3375	-0.0	-0.0	-0.0	-0.0	-0.0	-0.0	13.319742202758787	0.2903121709823608	-829.0863647460938	-0.0	-0.0	-0.0	-0.0	-0.0	-0.0	242705.5625	-34188.91015625	2615.857666015625
0.338	-0.0	-0.0	-0.0	-0.0	-0.0	-0.0	13.673969268798828	0.4038652181625366	-829.8826904296875	-0.0	-0.0	-0.0	-0.0	-0.0	-0.0	242275.296875	-34418.46875	2853.392333984375
0.3385	-0.0	-0.0	-0.0	-0.0	-0.0	-0.0	13.534832954406738	1.804326176643372	-829.1354370117188	-0.0	-0.0	-0.0	-0.0	-0.0	-0.0	241773.21875	-34733.7734375	2925.62890625
0.339	-0.0	-0.0	-0.0	-0.0	-0.0	-0.0	12.837796211242676	2.6373450756073	-831.5267333984375	-0.0	-0.0	-0.0	-0.0	-0.0	-0.0	242011.90625	-35129.12890625	3031.2158203125
0.3395	-0.0	-0.0	-0.0	-0.0	-0.0	-0.0	13.052545547485352	3.949393749237061	-835.3689575195312	-0.0	-0.0	-0.0	-0.0	-0.0	-0.0	242516.875	-35639.171875	3324.234130859375
0.34	-0.0	-0.0	-0.0	-0.0	-0.0	-0.0	14.586977005004885	4.51624870300293	-840.757080078125	-0.0	-0.0	-0.0	-0.0	-0.0	-0.0	243470.671875	-36924.6328125	4002.8681640625
0.3405	-0.0	-0.0	-0.0	-0.0	-0.0	-0.0	17.10614585876465	5.539266586303711	-846.9364624023438	-0.0	-0.0	-0.0	-0.0	-0.0	-0.0	244559.5	-37980.11328125	5094.52001953125
0.341	-0.0	-0.0	-0.0	-0.0	-0.0	-0.0	19.211599349975582	5.77938175201416	-852.3690795898438	-0.0	-0.0	-0.0	-0.0	-0.0	-0.0	245616.484375	-38783.99609375	5909.1748046875
0.3415	-0.0	-0.0	-0.0	-0.0	-0.0	-0.0	20.425874710083008	5.210979461669922	-858.7604370117188	-0.0	-0.0	-0.0	-0.0	-0.0	-0.0	246971.03125	-39647.453125	6461.298828125
0.342	-0.0	-0.0	-0.0	-0.0	-0.0	-0.0	21.784013748168945	2.688319683074951	-868.241943359375	-0.0	-0.0	-0.0	-0.0	-0.0	-0.0	248986.296875	-40126.2265625	6974.2373046875
0.3425	-0.0	-0.0	-0.0	-0.0	-0.0	-0.0	21.8833065032959	1.087993860244751	-875.0718383789062	-0.0	-0.0	-0.0	-0.0	-0.0	-0.0	250880.71875	-40228.26171875	7054.5302734375
0.343	-0.0	-0.0	-0.0	-0.0	-0.0	-0.0	21.02445602416992	1.4093621969223022	-879.5278930664062	-0.0	-0.0	-0.0	-0.0	-0.0	-0.0	251864.25	-40172.15625	6609.02099609375
0.3435	-0.0	-0.0	-0.0	-0.0	-0.0	-0.0	19.32875061035156	3.2143561840057373	-879.570068359375	-0.0	-0.0	-0.0	-0.0	-0.0	-0.0	252314.046875	-39496.046875	5892.900390625
0.34400000000000003	-0.0	-0.0	-0.0	-0.0	-0.0	-0.0	16.677627563476562	4.666463851928711	-877.2236328125	-0.0	-0.0	-0.0	-0.0	-0.0	-0.0	251363.0625	-38437.89453125	4951.97314453125
0.34450000000000003	-0.0	-0.0	-0.0	-0.0	-0.0	-0.0	14.55346965789795	5.107949256896973	-870.84228515625	-0.0	-0.0	-0.0	-0.0	-0.0	-0.0	249665.328125	-37490.55078125	4128.3466796875
0.34500000000000003	-0.0	-0.0	-0.0	-0.0	-0.0	-0.0	12.676069259643556	3.55733060836792	-863.414306640625	-0.0	-0.0	-0.0	-0.0	-0.0	-0.0	247549.0	-36371.7109375	3294.410888671875
0.34550000000000003	-0.0	-0.0	-0.0	-0.0	-0.0	-0.0	11.128499984741213	2.0370874404907227	-854.8567504882812	-0.0	-0.0	-0.0	-0.0	-0.0	-0.0	245357.203125	-35212.03515625	2834.71826171875
0.34600000000000003	-0.0	-0.0	-0.0	-0.0	-0.0	-0.0	9.11273956298828	0.8101246953010559	-850.846435546875	-0.0	-0.0	-0.0	-0.0	-0.0	-0.0	243797.109375	-34028.87109375	2427.886962890625
0.34650000000000003	-0.0	-0.0	-0.0	-0.0	-0.0	-0.0	6.852898597717285	-0.706573486328125	-847.4520263671875	-0.0	-0.0	-0.0	-0.0	-0.0	-0.0	242690.375	-32780.67578125	1522.7506103515625
